<?xml version="1.0" standalone="no"?>
<!DOCTYPE svg PUBLIC "-//W3C//DTD SVG 20010904//EN"
 "http://www.w3.org/TR/2001/REC-SVG-20010904/DTD/svg10.dtd">
<svg version="1.0" fill="#aaaaaa" xmlns="http://www.w3.org/2000/svg"
 width="1280" height="1129" viewBox="0 0 1280 1129"
 preserveAspectRatio="xMidYMid meet">
<metadata>
Created by potrace 1.15, written by Peter Selinger 2001-2017
</metadata>
<g transform="translate(0.000000,1129.000000) scale(0.100000,-0.100000)"
fill="#ffffff" stroke="none">
<path d="M90 11274 c-22 -9 -47 -31 -63 -56 l-27 -42 0 -5102 c0 -3581 3
-5111 11 -5131 18 -48 58 -81 113 -93 36 -8 324 -10 957 -8 l906 3 37 29 c71
54 66 -128 66 2236 0 1177 2 2140 5 2140 2 0 474 -400 1047 -888 574 -488
1588 -1351 2253 -1917 666 -566 1353 -1151 1528 -1299 175 -149 330 -277 345
-285 65 -34 158 -6 196 59 20 34 20 55 24 1167 l4 1133 1878 2 1879 3 27 21
c15 11 37 33 48 48 l21 27 0 2732 c0 2208 -2 2738 -13 2763 -7 16 -32 42 -54
57 l-42 27 -1878 0 -1878 0 -1 413 c-1 226 -4 736 -8 1132 -6 702 -6 721 -27
755 -53 92 -143 104 -236 33 -29 -23 -1191 -995 -2583 -2161 l-2530 -2121 -5
2119 -5 2119 -21 28 c-11 15 -36 38 -54 51 l-33 22 -926 -1 c-792 0 -931 -2
-961 -15z"/>
</g>
</svg>
