<?xml version="1.0" standalone="no"?>
<!DOCTYPE svg PUBLIC "-//W3C//DTD SVG 20010904//EN"
 "http://www.w3.org/TR/2001/REC-SVG-20010904/DTD/svg10.dtd">
<svg version="1.0" xmlns="http://www.w3.org/2000/svg"
 width="1280.000000pt" height="1127.000000pt" viewBox="0 0 1280.000000 1127.000000"
 preserveAspectRatio="xMidYMid meet">
<metadata>
Created by potrace 1.15, written by Peter Selinger 2001-2017
</metadata>
<g transform="translate(0.000000,1127.000000) scale(0.100000,-0.100000)"
fill="#ffffff" stroke="none">
<path d="M10845 11251 c-23 -10 -49 -33 -60 -52 -20 -34 -20 -57 -25 -2098
l-5 -2063 -2498 2093 c-1374 1152 -2513 2102 -2530 2111 -68 37 -149 11 -191
-61 -19 -33 -20 -61 -27 -915 -4 -485 -8 -981 -8 -1103 l-1 -223 -1838 -2
-1837 -3 -34 -24 c-66 -47 -61 169 -61 -2738 0 -2607 0 -2648 20 -2680 10 -18
31 -40 47 -50 26 -17 115 -18 1863 -23 l1835 -5 5 -1120 c5 -1059 6 -1122 23
-1148 46 -70 141 -86 210 -36 32 23 625 527 3657 3108 l1365 1161 5 -2097 c5
-2075 5 -2098 25 -2132 11 -18 36 -42 55 -52 34 -18 72 -19 952 -17 909 3 917
3 945 24 15 11 36 36 45 55 17 32 18 292 18 5009 0 4869 -1 4976 -19 5017 -14
30 -31 48 -60 62 -40 21 -51 21 -938 21 -851 0 -900 -1 -938 -19z"/>
</g>
</svg>
