<?xml version="1.0" standalone="no"?>
<svg version="1.0" xmlns="http://www.w3.org/2000/svg"
 width="1280.000000pt" height="1125.000000pt" viewBox="0 0 1280.000000 1125.000000"
 preserveAspectRatio="xMidYMid meet">
<g transform="translate(0.000000,1125.000000) scale(0.100000,-0.100000)"
fill="#ffffff" stroke="none">
<path d="M4331 9878 l-1851 -1361 0 -2892 0 -2891 613 -451 c336 -247 1169
-860 1851 -1362 681 -501 1242 -911 1247 -911 5 0 9 2391 9 5615 0 3274 -4
5615 -9 5615 -5 0 -842 -613 -1860 -1362z"/>
<path d="M0 5625 l0 -2895 878 2 877 3 0 2890 0 2890 -877 3 -878 2 0 -2895z"/>
<path d="M7150 7281 c-181 -56 -275 -255 -198 -422 15 -34 58 -92 108 -145
277 -300 422 -675 422 -1089 0 -428 -148 -797 -444 -1112 -80 -85 -112 -157
-112 -250 1 -163 123 -290 289 -301 136 -8 220 47 393 260 446 549 602 1279
422 1974 -93 361 -294 715 -555 980 -54 55 -83 76 -128 93 -59 21 -147 27
-197 12z"/>
</g>
</svg>
